# xmcd CD database file
#
# Track frame offsets:
#	187
#	23932
#	43605
#	67315
#
# Disc length: 1157 seconds
#
# Revision: 0
# Processed by: cddbd v1.5.1PL2 Copyright (c) Steve Scherf et al.
# Submitted via: CDex 1.51
#
DISCID=35048304
DTITLE=岡本真実 - 悲しませないで
DYEAR=1994
DGENRE=JPop
TTITLE0=悲しませないで
TTITLE1=風が吹くわ
TTITLE2=悲しませないで(Backng Track)
TTITLE3=風が吹くわ(Backing Track)
EXTD=YEAR: 1994
EXTT0=
EXTT1=
EXTT2=
EXTT3=
PLAYORDER=
